<?xml version="1.0" encoding="iso-8859-1"?>
<!-- Uploaded to: SVG Repo, www.svgrepo.com, Generator: SVG Repo Mixer Tools -->
<svg height="800px" width="800px" version="1.1" id="Layer_1" xmlns="http://www.w3.org/2000/svg" xmlns:xlink="http://www.w3.org/1999/xlink" 
	 viewBox="0 0 512 512" xml:space="preserve">
<path style="fill:#FF8163;" d="M255.999,148.097c-2.306,0-4.515-0.926-6.146-2.57l-59.979-60.481
	c-8.482-8.536-13.155-19.896-13.155-31.975c0-12.083,4.673-23.441,13.155-31.987c8.476-8.541,19.753-13.246,31.745-13.246
	c11.991,0,23.268,4.705,31.748,13.247l2.633,2.657l2.637-2.657c8.478-8.542,19.752-13.247,31.747-13.247
	c11.983,0,23.264,4.705,31.744,13.247c8.475,8.547,13.151,19.904,13.151,31.987c0,12.079-4.676,23.439-13.151,31.981l-59.98,60.473
	C260.518,147.172,258.306,148.097,255.999,148.097z"/>
<g style="opacity:0.1;">
	<path d="M222.398,74.075c-8.482-8.536-13.155-19.896-13.155-31.975c0-12.083,4.673-23.441,13.155-31.987
		c0.747-0.753,1.523-1.465,2.312-2.157c-1.024-0.07-2.054-0.118-3.091-0.118c-11.992,0-23.269,4.705-31.745,13.247
		c-8.482,8.547-13.155,19.904-13.155,31.987c0,12.079,4.673,23.439,13.155,31.975l59.979,60.481c1.631,1.645,3.84,2.57,6.146,2.57
		c2.306,0,4.518-0.926,6.149-2.57l15.555-15.684L222.398,74.075z"/>
</g>
<path style="fill:#C9F0F4;" d="M300.804,205.973c0.342-1.179,0.536-2.418,0.536-3.706v-13.409c0-7.405-6.058-13.409-13.534-13.409
	h-63.612c-7.473,0-13.534,6.004-13.534,13.409v13.409c0,1.287,0.194,2.528,0.536,3.706L300.804,205.973L300.804,205.973z"/>
<path style="opacity:0.1;enable-background:new    ;" d="M243.997,205.973c-0.342-1.179-0.536-2.418-0.536-3.706v-13.409
	c0-7.405,6.06-13.409,13.533-13.409h-32.801c-7.473,0-13.534,6.004-13.534,13.409v13.409c0,1.287,0.194,2.528,0.536,3.706
	L243.997,205.973L243.997,205.973z"/>
<path style="fill:#FFECD9;" d="M402.326,333.71V219.382c0-7.375-6.09-13.408-13.534-13.408H123.207
	c-7.444,0-13.534,6.034-13.534,13.408V333.71H402.326z"/>
<path style="fill:#FFAA99;" d="M388.792,205.973H123.207c-7.444,0-13.534,6.034-13.534,13.408v63.761
	c0.252,0.004,0.502,0.019,0.754,0.019c15.734,0,29.412-8.712,36.394-21.531c6.981,12.82,20.659,21.531,36.392,21.531
	c15.735,0,29.412-8.712,36.393-21.531c6.982,12.82,20.66,21.531,36.394,21.531s29.411-8.712,36.394-21.531
	c6.981,12.82,20.658,21.531,36.393,21.531c15.734,0,29.411-8.712,36.392-21.531c6.982,12.82,20.659,21.531,36.394,21.531
	c0.252,0,0.502-0.015,0.754-0.019v-63.761C402.326,212.008,396.236,205.973,388.792,205.973z"/>
<g>
	<path style="fill:#FFFFFF;" d="M148.375,239.804h-7.314c-4.329,0-7.837-3.508-7.837-7.837c0-4.329,3.508-7.837,7.837-7.837h7.314
		c4.329,0,7.837,3.508,7.837,7.837C156.212,236.296,152.704,239.804,148.375,239.804z"/>
	<path style="fill:#FFFFFF;" d="M185.991,262.792h-7.314c-4.329,0-7.837-3.508-7.837-7.837s3.508-7.837,7.837-7.837h7.314
		c4.329,0,7.837,3.508,7.837,7.837S190.32,262.792,185.991,262.792z"/>
	<path style="fill:#FFFFFF;" d="M219.428,239.804h-7.314c-4.329,0-7.837-3.508-7.837-7.837c0-4.329,3.508-7.837,7.837-7.837h7.314
		c4.329,0,7.837,3.508,7.837,7.837C227.265,236.296,223.757,239.804,219.428,239.804z"/>
	<path style="fill:#FFFFFF;" d="M260.176,262.792h-7.314c-4.329,0-7.837-3.508-7.837-7.837s3.508-7.837,7.837-7.837h7.314
		c4.329,0,7.837,3.508,7.837,7.837S264.505,262.792,260.176,262.792z"/>
	<path style="fill:#FFFFFF;" d="M293.613,239.804h-7.314c-4.329,0-7.837-3.508-7.837-7.837c0-4.329,3.508-7.837,7.837-7.837h7.314
		c4.328,0,7.837,3.508,7.837,7.837C301.449,236.296,297.942,239.804,293.613,239.804z"/>
	<path style="fill:#FFFFFF;" d="M333.322,262.792h-7.314c-4.329,0-7.837-3.508-7.837-7.837s3.508-7.837,7.837-7.837h7.314
		c4.329,0,7.837,3.508,7.837,7.837S337.651,262.792,333.322,262.792z"/>
	<path style="fill:#FFFFFF;" d="M366.759,239.804h-7.314c-4.329,0-7.837-3.508-7.837-7.837c0-4.329,3.508-7.837,7.837-7.837h7.314
		c4.329,0,7.837,3.508,7.837,7.837C374.595,236.296,371.088,239.804,366.759,239.804z"/>
</g>
<path style="fill:#FFECD9;" d="M431.702,459.962V347.119c0-7.375-6.09-13.409-13.534-13.409H93.83
	c-7.444,0-13.535,6.034-13.535,13.409v112.843H431.702z"/>
<path id="SVGCleanerId_0" style="fill:#C9F0F4;" d="M495.679,497.459c0,3.687-3.045,6.704-6.768,6.704H23.088
	c-3.723,0-6.768-3.017-6.768-6.704v-30.793c0-3.686,3.045-6.704,6.768-6.704h465.825c3.723,0,6.768,3.018,6.768,6.704v30.793
	H495.679z"/>
<path style="fill:#FFAA99;" d="M418.169,333.71H93.83c-7.444,0-13.535,6.034-13.535,13.409v58.03
	c2.645,0.452,5.36,0.701,8.135,0.701c18.111,0,33.857-10.029,41.893-24.786c8.035,14.757,23.781,24.786,41.891,24.786
	c18.112,0,33.857-10.029,41.893-24.786c8.036,14.757,23.782,24.786,41.893,24.786s33.854-10.029,41.893-24.786
	c8.035,14.757,23.781,24.786,41.892,24.786c18.111,0,33.856-10.029,41.892-24.786c8.035,14.757,23.781,24.786,41.893,24.786
	c2.774,0,5.49-0.249,8.133-0.701v-58.03C431.702,339.745,425.613,333.71,418.169,333.71z"/>
<path style="opacity:0.1;enable-background:new    ;" d="M123.783,459.962V347.119c0-7.375,6.091-13.409,13.535-13.409H93.83
	c-7.444,0-13.535,6.034-13.535,13.409v112.843H123.783z"/>
<g>
	<path id="SVGCleanerId_0_1_" style="fill:#C9F0F4;" d="M495.679,497.459c0,3.687-3.045,6.704-6.768,6.704H23.088
		c-3.723,0-6.768-3.017-6.768-6.704v-30.793c0-3.686,3.045-6.704,6.768-6.704h465.825c3.723,0,6.768,3.018,6.768,6.704v30.793
		H495.679z"/>
</g>
<path style="opacity:0.1;enable-background:new    ;" d="M71.053,497.459v-30.793c0-3.686,3.045-6.704,6.768-6.704H23.088
	c-3.723,0-6.768,3.018-6.768,6.704v30.793c0,3.687,3.045,6.704,6.768,6.704H77.82C74.097,504.163,71.053,501.147,71.053,497.459z"/>
<path d="M488.911,452.125h-49.372V347.119c0-11.715-9.587-21.246-21.37-21.246h-8.006V219.382c0-11.714-9.587-21.245-21.37-21.245
	h-17.855c-4.329,0-7.837,3.508-7.837,7.837c0,4.329,3.508,7.837,7.837,7.837h17.855c3.142,0,5.697,2.499,5.697,5.571v55.188
	c-9.471-2.022-17.714-8.032-22.429-16.689c-1.372-2.52-4.013-4.089-6.883-4.089c-2.87,0-5.51,1.568-6.883,4.089
	c-5.858,10.759-17.167,17.443-29.509,17.443c-12.344,0-23.652-6.683-29.51-17.442c-1.373-2.52-4.012-4.089-6.882-4.089
	c-0.001,0-0.001,0-0.001,0c-2.869,0-5.51,1.568-6.882,4.088c-5.862,10.76-17.171,17.444-29.512,17.444
	c-12.344,0-23.652-6.683-29.511-17.442c-1.372-2.52-4.013-4.089-6.883-4.089c-2.87,0-5.51,1.568-6.883,4.089
	c-5.858,10.759-17.167,17.442-29.51,17.442s-23.651-6.683-29.509-17.442c-1.372-2.52-4.012-4.089-6.883-4.089
	c-2.869,0-5.51,1.568-6.883,4.089c-4.715,8.657-12.96,14.668-22.429,16.69v-55.189c0-3.072,2.555-5.571,5.697-5.571h211.16
	c4.329,0,7.837-3.508,7.837-7.837c0-4.329-3.508-7.837-7.837-7.837h-25.19v-9.279c0-11.715-9.587-21.246-21.37-21.246h-23.97
	v-13.675c1.419-0.766,2.73-1.737,3.877-2.892l33.448-33.722c3.048-3.073,3.027-8.035-0.046-11.083
	c-3.07-3.046-8.033-3.026-11.082,0.046l-33.449,33.723c-0.319,0.325-0.841,0.327-1.165-0.001l-59.986-60.487
	c-7.013-7.057-10.876-16.451-10.876-26.449c0-9.998,3.864-19.397,10.881-26.467c6.993-7.049,16.293-10.931,26.182-10.931
	c9.888,0,19.187,3.883,26.181,10.925l2.633,2.657c1.471,1.485,3.473,2.321,5.563,2.322c0.002,0,0.003,0,0.003,0
	c2.09,0,4.092-0.834,5.562-2.315l2.638-2.658c6.997-7.049,16.295-10.931,26.185-10.931c9.886,0,19.183,3.883,26.18,10.929
	c7.015,7.075,10.878,16.475,10.878,26.469c0,9.993-3.863,19.392-10.878,26.463l-5.805,5.854c-3.048,3.072-3.027,8.034,0.046,11.082
	c3.072,3.047,8.033,3.027,11.082-0.046l5.804-5.852c9.947-10.026,15.425-23.344,15.425-37.501c0-14.156-5.477-27.477-15.427-37.509
	C317.727,5.526,304.479,0,290.385,0c-12.758,0-24.824,4.528-34.383,12.825C246.44,4.526,234.376,0,221.619,0
	c-14.099,0-27.348,5.528-37.307,15.563c-9.95,10.026-15.43,23.346-15.43,37.508c0,14.168,5.48,27.484,15.428,37.493l59.978,60.48
	c1.161,1.171,2.466,2.146,3.874,2.91v13.658h-23.969c-11.783,0-21.37,9.531-21.37,21.246v9.279h-79.616
	c-11.783,0-21.37,9.531-21.37,21.245v106.492h-8.006c-11.784,0-21.371,9.531-21.371,21.246v105.006H23.089
	c-8.053,0-14.605,6.522-14.605,14.541v30.793c0,8.018,6.552,14.541,14.605,14.541h106.478c4.329,0,7.837-3.508,7.837-7.837
	c0-4.329-3.508-7.837-7.837-7.837H24.156v-28.528h463.686v28.529H166.137c-4.329,0-7.837,3.508-7.837,7.837s3.508,7.837,7.837,7.837
	h322.774c8.053,0,14.605-6.523,14.605-14.541v-30.793C503.516,458.647,496.964,452.125,488.911,452.125z M218.496,188.858
	c0-3.072,2.556-5.572,5.697-5.572h63.612c3.141,0,5.697,2.5,5.697,5.572v9.279h-75.006V188.858z M117.51,290.477
	c11.328-1.631,21.677-7.117,29.311-15.456c9.2,10.052,22.342,15.977,36.392,15.977s27.192-5.925,36.393-15.977
	c9.201,10.052,22.344,15.977,36.394,15.977c14.049,0,27.19-5.924,36.393-15.977c9.2,10.052,22.344,15.977,36.394,15.977
	c14.05,0,27.191-5.925,36.392-15.977c7.634,8.339,17.984,13.825,29.311,15.456v35.396H117.51V290.477z M88.132,347.119
	c0-3.021,2.609-5.572,5.698-5.572h324.338c3.141,0,5.697,2.5,5.697,5.572v50.889c-0.099,0-0.199,0.006-0.297,0.006
	c-14.644,0-28.06-7.931-35.01-20.697c-1.373-2.52-4.013-4.089-6.883-4.089s-5.51,1.568-6.883,4.089
	c-6.951,12.767-20.366,20.697-35.009,20.697c-14.643,0-28.059-7.931-35.009-20.697c-1.372-2.52-4.012-4.089-6.882-4.089h-0.001
	c-2.869,0-5.509,1.568-6.882,4.088c-6.955,12.768-20.37,20.698-35.011,20.698c-14.644,0-28.06-7.931-35.01-20.697
	c-1.372-2.52-4.013-4.089-6.883-4.089s-5.51,1.568-6.883,4.089c-6.951,12.767-20.366,20.697-35.01,20.697
	c-14.642,0-28.058-7.931-35.008-20.697c-1.372-2.52-4.013-4.089-6.883-4.089c-2.869,0-5.51,1.568-6.883,4.089
	c-6.951,12.767-20.366,20.697-35.01,20.697c-0.099,0-0.199-0.006-0.298-0.006v-50.889H88.132z M88.132,413.681
	c0.099,0,0.199,0.006,0.298,0.006c16.287,0,31.492-7.062,41.893-18.984c10.401,11.921,25.605,18.984,41.891,18.984
	c16.287,0,31.492-7.062,41.893-18.984c10.401,11.921,25.606,18.984,41.893,18.984c16.286,0,31.489-7.061,41.892-18.984
	c10.402,11.922,25.605,18.984,41.893,18.984c16.287,0,31.491-7.062,41.892-18.984c10.401,11.921,25.606,18.984,41.893,18.984
	c0.098,0,0.197-0.006,0.297-0.006v38.444H88.132V413.681z"/>
<path style="opacity:0.1;enable-background:new    ;" d="M153.161,333.71V219.382c0-7.375,6.09-13.408,13.534-13.408h-43.488
	c-7.444,0-13.534,6.034-13.534,13.408V333.71H153.161z"/>
</svg>