<?xml version="1.0" encoding="iso-8859-1"?>
<!-- Uploaded to: SVG Repo, www.svgrepo.com, Generator: SVG Repo Mixer Tools -->
<svg height="800px" width="800px" version="1.1" id="Layer_1" xmlns="http://www.w3.org/2000/svg" xmlns:xlink="http://www.w3.org/1999/xlink" 
	 viewBox="0 0 512 512" xml:space="preserve">
<polygon style="fill:#FF6761;" points="291.949,9.806 310.021,42.999 277.45,92.467 277.45,9.806 "/>
<polygon style="fill:#FF9387;" points="277.45,9.806 294.16,59.786 253.789,102.522 197.12,42.999 215.182,9.806 "/>
<path style="fill:#BE2A45;" d="M310.021,42.999c-4.063,0.425-8.05,1.111-11.939,2.048l-17.386,122.826
	c22.397-9.456,39.173-30.611,39.173-58.891c0-38.956,0-66.495,0-66.495C316.536,42.487,313.257,42.662,310.021,42.999z"/>
<path style="fill:#E43349;" d="M298.082,45.047c0,7.68,0,31.962,0,63.935c0,28.28-7.44,49.435-17.386,58.891l-27.125-97.814
	l0.218-0.218C265.782,57.847,281.012,49.111,298.082,45.047z"/>
<path style="fill:#FF3B3B;" d="M197.12,42.997c21.994,2.299,41.701,12.212,56.451,27.06c16.776,16.885,27.125,40.154,27.125,65.852
	v31.962c-8.443,3.584-17.68,5.49-27.125,5.49c-34.467,0-66.299-25.437-66.299-64.381c0-38.956,0-66.495,0-66.495
	C190.606,42.485,193.885,42.659,197.12,42.997z"/>
<path style="fill:#864941;" d="M350.046,173.366h-32.681l43.574,98.043h32.681v-54.468
	C393.62,192.975,374.012,173.366,350.046,173.366z"/>
<path style="fill:#B26156;" d="M360.939,216.941v54.468H118.382v-54.468c0-23.966,19.609-43.574,43.574-43.574h155.408
	C341.331,173.366,360.939,192.975,360.939,216.941z"/>
<polygon style="fill:#CB2E3E;" points="460.071,325.877 460.071,447.69 427.39,447.69 372.922,277.531 "/>
<path style="fill:#FF3B3B;" d="M427.39,321.106V447.69H51.931l-0.022-121.812c13.475,0,204.081-37.899,204.081-37.899
	S369.055,310.92,427.39,321.106z"/>
<path style="fill:#5DC09A;" d="M449.788,451.753l-43.226,48.226h32.681c11.983,0,25.763-8.965,30.633-19.914l12.942-29.108
	L449.788,451.753z"/>
<path style="fill:#6CDFB4;" d="M449.788,451.753l-12.593,28.313c-4.869,10.948-18.65,19.914-30.633,19.914H72.76
	c-11.983,0-25.763-8.965-30.633-19.914l-12.942-29.108L449.788,451.753z"/>
<path style="fill:#7BFFCD;" d="M487.49,429.169l-462.979-0.003c-9.02,0-16.34,7.32-16.34,16.34c0,9.031,7.321,16.34,16.34,16.34
	H487.49c9.02,0,16.34-7.31,16.34-16.34C503.831,436.488,496.51,429.169,487.49,429.169z"/>
<path style="fill:#864941;" d="M416.497,249.622h-32.681l43.574,89.458c8.083-6.765,16.558-13.203,32.681-13.203v-32.681
	C460.071,269.23,440.463,249.622,416.497,249.622z"/>
<path style="fill:#B26156;" d="M427.39,293.196v45.884c-8.976,7.517-17.452,15.436-35.35,15.436
	c-34.01,0-34.01-28.639-68.031-28.639c-34.01,0-34.01,28.639-68.02,28.639s-34.01-28.639-68.02-28.639
	c-34.021,0-34.021,28.639-68.031,28.639c-34.021,0-34.021-28.639-68.031-28.639v-32.681c0-23.966,19.609-43.574,43.574-43.574
	h288.332C407.782,249.622,427.39,269.23,427.39,293.196z"/>
<path d="M487.489,422.106h-19.245V294.297c0-28.531-23.213-51.745-51.745-51.745h-14.706v-24.511
	c0-28.531-23.213-51.745-51.745-51.745h-49.033c15.948-12.469,27.023-31.664,27.023-56.215l-0.001-65.226
	c-0.001-9.164-7.334-9.428-8.17-9.428c-1.735,0-3.462,0.054-5.182,0.139L299.12,7.006c-1.431-2.626-4.184-4.26-7.175-4.26h-76.763
	c-2.991,0-5.744,1.635-7.175,4.263l-15.555,28.56c-1.721-0.087-3.447-0.142-5.18-0.142c-4.512,0-8.17,3.657-8.17,8.17v66.484
	c0,24.551,11.074,43.747,27.023,56.215h-44.174c-28.531,0-51.745,23.213-51.745,51.745v24.511H95.501
	c-28.531,0-51.745,23.213-51.745,51.745v32.291c-0.007,0.134-0.021,0.266-0.021,0.401s0.014,0.267,0.021,0.401v94.718H24.511
	C10.995,422.106,0,433.102,0,446.617c0,13.515,10.995,24.511,24.511,24.511h4.21l5.941,13.366
	c6.171,13.885,22.907,24.761,38.102,24.761h366.472c15.194,0,31.931-10.876,38.103-24.761l5.94-13.366h4.21
	c13.515,0,24.511-10.996,24.511-24.511C512,433.102,501.004,422.106,487.489,422.106z M220.036,19.086h67.058l10.26,18.826
	c-16.131,3.626-31.108,11.147-43.787,22.094c-12.671-10.918-27.689-18.443-43.792-22.079L220.036,19.086z M195.442,110.08V52.161
	c40.593,3.934,73.626,36.85,76.823,78.158c0.349,4.499,4.278,7.876,8.777,7.514c4.499-0.348,7.863-4.278,7.514-8.777
	c-1.646-21.264-9.878-41.242-23.471-57.398c13.242-11.134,29.38-17.885,46.612-19.509v57.931c0,35.189-29.555,56.215-58.128,56.215
	S195.442,145.269,195.442,110.08z M95.501,258.892h55.557c4.512,0,8.17-3.657,8.17-8.17s-3.658-8.17-8.17-8.17h-24.511v-24.511
	c0-19.522,15.883-35.404,35.404-35.404h188.097c19.522,0,35.404,15.882,35.404,35.404v24.511H183.738c-4.512,0-8.17,3.657-8.17,8.17
	s3.658,8.17,8.17,8.17H416.5c19.522,0,35.404,15.882,35.404,35.404v25.066c-14.775,1.982-23.392,9.195-31.107,15.689
	c-8.229,6.925-14.728,12.396-28.755,12.396c-14.028,0-20.527-5.47-28.755-12.396c-9.041-7.609-19.288-16.234-39.277-16.234
	c-19.986,0-30.232,8.626-39.273,16.235c-8.227,6.924-14.725,12.395-28.749,12.395s-20.522-5.47-28.749-12.396
	c-9.04-7.609-19.286-16.234-39.273-16.234c-19.989,0-30.236,8.624-39.277,16.234c-8.228,6.925-14.727,12.396-28.755,12.396
	s-20.526-5.47-28.755-12.396c-7.712-6.49-16.323-13.701-31.087-15.686v-25.069C60.097,274.774,75.979,258.892,95.501,258.892z
	 M60.097,335.911c8.741,1.718,14.132,6.228,20.564,11.642c9.041,7.609,19.288,16.234,39.277,16.234s30.235-8.624,39.277-16.234
	c8.228-6.925,14.728-12.396,28.755-12.396c14.024,0,20.522,5.47,28.749,12.395c9.04,7.609,19.286,16.235,39.273,16.235
	s30.232-8.626,39.273-16.235c8.227-6.924,14.725-12.395,28.749-12.395c14.028,0,20.527,5.47,28.755,12.396
	c9.041,7.609,19.288,16.234,39.277,16.234c19.989,0,30.235-8.624,39.276-16.234c6.437-5.418,11.833-9.932,20.585-11.645v86.198
	H60.097V335.911z M487.489,454.787h-9.348c-0.022,0-0.045,0-0.066,0h-65.468c-4.513,0-8.17,3.657-8.17,8.17
	c0,4.513,3.657,8.17,8.17,8.17h52.789l-2.991,6.73c-3.564,8.021-14.393,15.057-23.171,15.057H72.764
	c-8.778,0-19.605-7.036-23.17-15.057l-2.991-6.73h333.324c4.513,0,8.17-3.657,8.17-8.17c0-4.513-3.657-8.17-8.17-8.17H33.893
	c-0.022,0-9.383,0-9.383,0c-4.506,0-8.17-3.665-8.17-8.17s3.665-8.17,8.17-8.17h462.979c4.506,0,8.17,3.665,8.17,8.17
	S491.995,454.787,487.489,454.787z"/>
</svg>